<?xml version="1.0" standalone="no"?>
<svg xmlns="http://www.w3.org/2000/svg" viewBox="0 0 1440 320">
    <path fill="#0099ff" fill-opacity="1" d="M0,64L18.5,85.3C36.9,107,74,149,111,176C147.7,203,185,213,222,197.3C258.5,181,295,139,332,133.3C369.2,128,406,160,443,154.7C480,149,517,107,554,96C590.8,85,628,107,665,96C701.5,85,738,43,775,53.3C812.3,64,849,128,886,154.7C923.1,181,960,171,997,176C1033.8,181,1071,203,1108,202.7C1144.6,203,1182,181,1218,197.3C1255.4,213,1292,267,1329,288C1366.2,309,1403,299,1422,293.3L1440,288L1440,320L1421.5,320C1403.1,320,1366,320,1329,320C1292.3,320,1255,320,1218,320C1181.5,320,1145,320,1108,320C1070.8,320,1034,320,997,320C960,320,923,320,886,320C849.2,320,812,320,775,320C738.5,320,702,320,665,320C627.7,320,591,320,554,320C516.9,320,480,320,443,320C406.2,320,369,320,332,320C295.4,320,258,320,222,320C184.6,320,148,320,111,320C73.8,320,37,320,18,320L0,320Z"></path>
</svg>